<svg width="22" height="25" viewBox="0 0 22 25" fill="none" xmlns="http://www.w3.org/2000/svg">
<path fill-rule="evenodd" clip-rule="evenodd" d="M10.8494 14.4058C11.4301 14.4067 12.0052 14.2984 12.5418 14.087C13.0784 13.8757 13.566 13.5654 13.9765 13.1741C14.3871 12.7828 14.7126 12.318 14.9343 11.8066C15.156 11.2951 15.2697 10.7469 15.2687 10.1935C15.277 9.05984 14.819 7.96823 13.9929 7.15263C13.1668 6.33703 12.0383 5.86235 10.8494 5.83034C10.2687 5.82927 9.69351 5.93749 9.15677 6.14878C8.62004 6.36008 8.13235 6.6703 7.72167 7.06164C7.311 7.45299 6.98542 7.91776 6.76361 8.4293C6.54181 8.94085 6.42813 9.4891 6.42911 10.0426C6.4483 11.1685 6.91549 12.2454 7.73613 13.0555C8.55678 13.8655 9.6696 14.3481 10.8494 14.4058ZM3.43017 2.97085C5.39789 1.09544 8.06662 0.0418972 10.8493 0.0419922C13.6319 0.0420871 16.3006 1.09581 18.2682 2.97136C20.2357 4.8469 21.3411 7.39064 21.341 10.043C21.3409 12.6953 20.2354 15.239 18.2676 17.1144L10.8494 24.1871L3.43017 17.1144C1.5297 15.2055 0.470215 12.6742 0.470215 10.0426C0.470215 7.41101 1.5297 4.87976 3.43017 2.97085Z" fill="white"/>
</svg>
